<svg viewBox="0 0 200 200" xmlns="http://www.w3.org/2000/svg">
  <circle cx="100" cy="100" r="100" fill="#db2777" />
  <g fill="#ffffff">
    <path d="M100,100 C82,78 80,35 100,12 C120,35 118,78 100,100 Z" />
    <path d="M100,100 C82,78 80,35 100,12 C120,35 118,78 100,100 Z" transform="rotate(45 100 100)" />
    <path d="M100,100 C82,78 80,35 100,12 C120,35 118,78 100,100 Z" transform="rotate(90 100 100)" />
    <path d="M100,100 C82,78 80,35 100,12 C120,35 118,78 100,100 Z" transform="rotate(135 100 100)" />
    <path d="M100,100 C82,78 80,35 100,12 C120,35 118,78 100,100 Z" transform="rotate(180 100 100)" />
    <path d="M100,100 C82,78 80,35 100,12 C120,35 118,78 100,100 Z" transform="rotate(225 100 100)" />
    <path d="M100,100 C82,78 80,35 100,12 C120,35 118,78 100,100 Z" transform="rotate(270 100 100)" />
    <path d="M100,100 C82,78 80,35 100,12 C120,35 118,78 100,100 Z" transform="rotate(315 100 100)" />
  </g>
  <circle cx="100" cy="100" r="9" fill="#c9a227" />
</svg>
